<svg xmlns="http://www.w3.org/2000/svg" style="isolation:isolate" width="128" height="128"><defs><clipPath id="a"><path d="M0 0h128v128H0z"/></clipPath></defs><g clip-path="url(#a)"><path d="M37.184 36.858l-7.713-7.712v55.617l.109 2.607c0 1.195.217 2.607.652 4.019l61.049 21.509 15.208-6.735-69.305-69.305z" fill="#00C4B3"/><path d="M30.232 91.389zm76.257 14.774l-15.208 6.735L30.34 91.389c1.195 4.454 3.694 9.451 6.518 12.275l19.879 19.771 44.32.108 5.432-17.38z" fill="#22D3C5"/><path d="M29.689 29.146L6.008 64.993c-1.955 2.064-.978 6.409 2.172 9.668l13.687 13.795 8.582 3.042c-.326-1.412-.652-2.824-.652-4.019l-.108-2.607V29.146z" fill="#0075C9"/><path d="M91.715 29.797a30.582 30.582 0 0 0-4.019-.651l-2.716-.109H29.471l77.018 77.017 6.734-15.208-21.508-61.049z" fill="#0075C9"/><path d="M91.607 29.797c.108 0 .108 0 0 0 .108 0 .108 0 0 0zm12.383 6.518c-2.824-2.824-7.712-5.431-12.275-6.518l21.508 61.049-6.734 15.208L123 100.731V55.433l-19.01-19.118z" fill="#00A8E1"/><path d="M88.674 21.324L74.878 7.637c-3.15-3.15-7.495-4.128-9.668-2.172L29.363 29.146h55.509l2.715.108c1.195 0 2.607.217 4.02.652l-2.933-8.582z" fill="#00C4B3"/></g></svg>